<svg width="1021" height="1007" viewBox="0 0 1021 1007" fill="none" xmlns="http://www.w3.org/2000/svg">
<path d="M981.566 0.109912C999.005 -0.646544 1011.6 2.11643 1018.87 20.6109C1022.28 29.2757 1020.51 38.8829 1018.35 47.5516C1017.83 49.622 1018.04 52.9084 1017.56 55.0968C1015.6 65.1639 1013.14 75.1955 1011.23 85.2678L990.411 191.374L977.287 260.653C974.303 276.889 971.665 299.089 966.278 313.793C959.387 332.613 930.694 335.029 917.031 322.228C912.319 317.817 908.395 313.054 903.85 308.661C890.558 296.014 877.465 283.155 864.587 270.087C859.801 265.267 853.16 257.661 847.272 254.63C836.342 249.007 832.063 255.771 825.089 262.618C816.635 270.913 808.427 279.526 800.026 287.935L696.788 391.816L541.648 547.168L441.546 647.384C434.94 653.952 428.443 659.429 422.086 666.609C415.663 673.24 404.371 680.399 401.914 689.742C397.72 705.691 399.395 724.895 399.284 741.564L399.468 877.612C399.456 899.947 399.77 922.965 398.57 945.273C398.348 949.401 395.981 958.264 394.363 962.256C391.716 968.788 385.585 978.372 381.078 983.849C377.799 987.282 373.629 989.795 370.005 992.779C349.324 1009.83 318.452 1005.75 293.411 1005.85L208.209 1005.91L120.46 1005.84C103.026 1005.88 61.8755 1008.03 46.6902 1001.98C30.3742 996.641 12.5178 978.926 5.90571 963.155C5.25436 961.603 1.16401 950.269 1.10936 949.125C-0.551958 914.385 0.136175 879.394 0.167836 844.613L0.319872 751.185L0.296727 710.551C0.273687 690.991 -1.33283 665.323 8.9387 647.964C18.3025 632.135 36.5988 615.821 54.8928 611.839C71.6168 608.197 91.0189 609.294 108.311 609.305L155.735 609.357L271.507 609.279C286.531 609.294 306.099 610.225 320.803 608.605C323.905 608.26 329.599 604.952 332.013 602.642C347.761 587.546 362.924 571.749 378.354 556.375L463.644 471.33L667.138 267.783L732.164 203.053C737.686 197.575 755.758 181.111 758.835 175.871C758.898 172.892 759.102 170.258 759.337 167.295C755.544 159.521 745.309 150.959 739.086 144.715C727.472 133.064 715.314 121.914 703.804 110.172C699.264 105.543 694.108 101.112 690.09 95.9891C682.159 84.9548 682.937 68.3547 693.35 59.0667C696.401 56.3452 697.404 55.0749 701.323 53.7492C711.955 50.155 723.376 48.2691 734.395 46.1909L778.668 37.913L908.944 13.9541L957.339 4.74365C965.463 3.18318 973.504 2.01134 981.566 0.109912ZM268.194 900.495C274.498 899.858 283.525 899.92 287.538 894.214C296.203 881.793 292.946 863.754 293.072 849.384C293.327 819.703 293.581 789.52 293.041 759.885C292.809 747.135 296.771 727.116 285.2 718.729C279.018 714.245 260.207 715.436 252.386 715.421C238.209 715.353 224.032 715.389 209.856 715.525L156.777 715.64C149.614 715.656 141.412 715.348 134.362 715.598C126.862 715.802 118.536 715.233 112.88 721.132C110.458 723.662 107.824 728.312 107.158 731.923C106.284 745.499 107.356 759.833 107.284 773.373L107.089 832.845C106.953 848.339 106.834 863.833 106.904 879.326C106.946 888.576 112.269 898.739 122.484 899.377C135.13 900.161 148.015 899.654 160.707 899.596L233.871 899.706C244.24 899.732 255.952 899.346 266.175 900.48C267.153 900.589 267.134 900.621 268.194 900.495Z" fill="#2B68E5"/>
<path d="M167.247 347.848C159.578 348.222 153.612 355.208 152.717 362.561C151.031 376.402 151.704 391.014 151.712 405.005L151.531 498.784C151.491 512.365 152.258 526.558 151.371 540.034C151.044 545.004 147.441 550.428 143.494 553.454C140.753 555.565 137.519 556.95 134.097 557.472C128.456 558.371 115.623 557.812 109.015 557.848L79.6198 557.969C74.8257 557.974 66.5525 558.193 62.0536 557.436C56.375 556.505 51.3426 553.245 48.1702 548.437C46.0705 545.265 45.6013 541.905 45.4409 538.19C44.7685 522.612 45.28 506.92 45.28 491.35L45.3338 405.12L45.2711 360.306C45.3045 352.6 44.8651 342.411 46.2408 335.054C52.6942 300.542 69.6533 275.391 99.3118 256.604C103.245 254.13 107.345 251.931 111.582 250.021C115.283 248.379 117.409 248.28 120.729 245.776C123.646 244.515 128.452 243.752 131.425 243.159C151.875 239.084 173.921 240.372 194.773 240.372L269.048 240.379L495.813 240.384L581.287 240.72C585.869 240.696 615.184 239.876 618.125 240.615L618.611 241.864C617.478 247.714 601.234 259.426 596.558 264.525C580.325 282.024 562.353 297.648 545.838 314.821C529.652 331.65 520.713 342.516 496.86 346.431C490.146 347.971 480.957 347.381 473.925 347.297C456.134 347.082 438.404 347.46 420.612 347.326L257.015 347.346L203.05 347.322C192.781 347.276 177.003 346.688 167.247 347.848Z" fill="#2B68E5"/>
<path d="M167.247 347.848C172.822 343.676 199.243 346.843 207.133 344.938C208.409 344.63 210.252 344.611 211.593 344.676C210.681 344.255 210.891 344.495 210.287 343.797C213.35 343.333 234.899 343.221 237.369 343.649C235.418 343.785 225.417 344.013 224.623 344.865C230.059 345.415 232.451 343.45 236.65 345.248L236.251 345.938C243.166 345.25 250.938 345.237 257.98 344.827C260.57 345.053 263.135 345.806 265.733 345.959C273.564 346.421 281.556 346.458 289.391 346.01C289.516 345.995 289.641 345.98 289.766 345.964C288.258 345.553 287.983 345.625 286.689 344.79C288.666 344.298 291.151 344.773 293.083 345.394L292.744 345.849L290.473 346.059C296.806 346.401 309.087 346.411 315.304 346.044L313.18 345.604L313.005 345.176C315.663 345.138 324.86 344.32 326.584 344.667C331.535 346.784 337.316 344.713 340.899 344.85C346.874 345.08 394.05 344.847 395.029 345.639C394.032 345.818 393.451 345.907 392.426 345.997L391.587 346.062C394.384 346.279 395.899 346.247 398.66 346.138C398.003 345.746 397.472 345.636 396.742 345.439L396.68 344.628L398.439 344.523C401.287 346.765 410.921 346.591 414.169 346.265C417.896 345.891 440.94 346.803 442.807 345.806L442.157 345.249L442.425 344.733C451.189 342.819 452.713 347.67 458.299 346.211C466.226 344.141 470.818 346.054 478.614 346.009C485.208 345.97 490.166 345.898 496.86 346.431C490.146 347.971 480.957 347.381 473.925 347.296C456.134 347.082 438.404 347.46 420.612 347.326L257.015 347.346L203.05 347.322C192.781 347.276 177.004 346.688 167.247 347.848Z" fill="#2C60C5"/>
<path d="M776.531 384.749C776.913 387.119 776.813 399.89 776.803 402.718L776.698 438.951L776.709 575.741V756.823L776.74 812.726C776.73 842.638 777.942 872.23 760.591 898.51C757.555 902.956 753.376 906.766 749.922 910.79C734.854 928.332 713.59 940.539 690.68 944.239C676.637 946.507 661.72 945.775 647.29 945.717L588.827 945.592L511.738 945.581C498.178 945.534 484.167 946.177 470.669 944.871C466.178 944.437 464.04 943.094 460.503 940.607C457.721 937.832 455.465 934.367 454.301 930.595C453.668 928.525 453.293 926.383 453.187 924.219C451.982 903.678 454.148 880.105 453.357 859.25C453.105 852.603 460.988 841.65 467.457 840.845C485.394 838.624 504.784 839.539 523.07 839.534L624.04 839.539C648.716 839.565 669.97 845.961 669.693 811.326C669.573 796.532 669.589 780.537 669.641 765.686L669.662 585.696L669.604 532.201C669.63 519.341 667.969 498.24 675.106 487.412C682.755 475.26 695.325 465.867 704.599 455.236C714.228 444.195 724.447 436.003 734.562 425.695L761.557 398.118C765.554 394.008 771.291 386.543 776.531 384.749Z" fill="#2B68E5"/>
</svg>
